<?xml version="1.0" standalone="no"?>
<!DOCTYPE svg PUBLIC "-//W3C//DTD SVG 20010904//EN"
 "http://www.w3.org/TR/2001/REC-SVG-20010904/DTD/svg10.dtd">
<svg version="1.0" xmlns="http://www.w3.org/2000/svg"
 width="600.000000pt" height="493.000000pt" viewBox="0 0 600.000000 493.000000"
 preserveAspectRatio="xMidYMid meet">

<g transform="translate(0.000000,493.000000) scale(0.100000,-0.100000)"
fill="#000000" stroke="none">
<path d="M3116 4315 c-37 -19 -89 -50 -115 -69 -51 -38 -154 -143 -190 -193
-12 -18 -28 -33 -35 -33 -7 0 -21 -7 -32 -15 -18 -13 -17 -14 17 -15 31 0 40
6 61 38 64 95 225 230 336 281 49 23 67 41 40 41 -7 0 -44 -16 -82 -35z"/>
<path d="M4020 4266 c0 -2 30 -14 68 -27 89 -29 316 -119 322 -128 3 -4 24
-13 48 -19 23 -7 42 -16 42 -21 0 -4 6 -8 13 -8 19 0 164 -70 172 -82 3 -6 21
-10 38 -10 22 1 25 3 12 6 -11 3 -32 14 -47 25 -100 70 -668 295 -668 264z"/>
<path d="M4415 4050 c-4 -6 1 -22 10 -36 18 -28 55 -129 55 -151 0 -10 -41
-13 -210 -13 -191 0 -440 -18 -559 -40 -34 -6 -53 -4 -85 11 -96 43 -177 0
-151 -81 6 -19 2 -20 -54 -20 -65 0 -70 3 -46 26 16 17 20 60 7 68 -5 3 -18 3
-29 0 -16 -4 -23 -18 -30 -52 -8 -45 -9 -47 -46 -50 -31 -3 -45 3 -73 28 -39
33 -54 32 -54 -6 0 -22 -4 -24 -50 -24 -52 0 -60 5 -36 24 8 6 18 23 21 37 8
31 -15 45 -46 28 -16 -8 -20 -19 -17 -47 l3 -36 -55 3 c-58 3 -72 8 -53 19 6
4 14 19 18 33 8 33 -8 41 -60 29 -44 -10 -57 -20 -26 -20 16 0 21 -5 18 -14
-3 -7 0 -19 6 -25 17 -17 4 -22 -46 -15 -37 5 -47 11 -47 25 0 14 -7 19 -30
19 -23 0 -30 -4 -30 -20 0 -18 -7 -20 -57 -20 -50 1 -56 2 -40 14 20 15 23 52
5 58 -7 2 -112 -1 -233 -8 -121 -7 -251 -13 -288 -13 -38 -1 -66 -5 -63 -10 4
-5 -40 -12 -97 -15 -56 -3 -175 -11 -265 -16 -89 -5 -181 -8 -205 -5 -23 2
-109 9 -192 15 -82 6 -172 12 -200 15 l-50 4 60 -14 c50 -11 54 -13 25 -14
-42 -1 -246 22 -389 44 -57 8 -106 13 -109 10 -3 -3 18 -52 46 -109 52 -102
53 -104 110 -129 80 -36 191 -70 377 -116 355 -88 648 -212 708 -299 28 -40
147 -161 147 -149 0 7 19 -9 66 -55 32 -30 72 -118 95 -206 24 -88 29 -321 11
-430 -21 -122 -83 -202 -254 -324 -48 -35 -87 -66 -87 -69 -1 -4 50 -14 111
-23 62 -10 168 -26 236 -37 201 -31 236 -27 514 62 139 44 157 53 162 75 7 25
73 105 84 102 4 -1 16 3 28 9 12 7 25 8 35 2 12 -7 12 -9 -1 -9 -12 -1 -11 -3
3 -11 20 -12 52 6 41 22 -3 5 0 9 6 9 7 0 9 -6 6 -12 -3 -7 -9 -21 -12 -31 -5
-12 -13 -16 -26 -11 -13 4 -24 1 -29 -7 -12 -19 -11 -29 1 -29 6 0 10 7 10 15
0 8 5 15 10 15 6 0 10 -5 10 -10 0 -7 6 -7 20 0 11 6 20 18 20 27 0 13 3 14
12 5 19 -19 33 -14 45 18 8 21 8 30 0 30 -5 0 -8 3 -4 6 3 3 13 2 22 -3 16 -9
16 -11 0 -27 -10 -9 -15 -20 -11 -23 8 -8 36 17 36 33 0 17 17 18 23 2 2 -7
11 2 21 20 11 20 12 32 5 32 -6 0 -9 8 -5 18 5 14 4 14 -9 -2 -17 -22 -20 -40
-5 -31 6 4 7 -1 3 -11 -4 -11 -8 -13 -11 -6 -2 7 -8 10 -13 6 -5 -3 -9 0 -9 6
0 6 -4 8 -10 5 -5 -3 -10 3 -10 14 0 14 6 21 20 21 11 0 19 3 18 8 -2 4 8 28
20 54 20 41 47 150 98 404 8 39 25 90 38 114 22 41 27 45 65 46 36 1 41 -2 41
-21 0 -13 -7 -28 -15 -35 -9 -8 -13 -21 -9 -37 5 -17 1 -28 -12 -38 -11 -7
-15 -17 -10 -22 5 -4 11 -2 13 5 3 6 9 12 15 12 6 0 3 -8 -6 -19 -12 -13 -15
-27 -10 -45 4 -16 2 -26 -5 -26 -6 0 -11 7 -11 17 0 9 -2 14 -5 12 -2 -3 -2
-22 2 -42 5 -34 7 -35 19 -20 7 10 14 13 14 7 0 -6 -7 -17 -15 -24 -9 -8 -13
-21 -9 -36 4 -14 2 -24 -5 -24 -6 0 -8 7 -5 15 4 8 1 15 -5 15 -14 0 -14 -6
-1 -49 8 -28 6 -38 -7 -53 -13 -15 -14 -20 -2 -34 11 -14 11 -18 -5 -29 -12
-9 -16 -20 -11 -35 4 -11 1 -27 -5 -35 -6 -8 -9 -23 -5 -34 3 -11 1 -23 -6
-27 -7 -4 -9 -3 -5 4 3 6 2 13 -4 17 -6 4 -10 -6 -10 -24 0 -16 5 -33 10 -36
6 -3 10 -1 10 6 0 7 3 9 7 6 3 -4 -2 -15 -13 -25 -19 -18 -19 -18 -31 17 l-12
36 2 -34 c1 -19 -3 -36 -10 -38 -7 -3 -10 5 -9 21 2 14 0 26 -4 26 -12 0 -19
-39 -9 -46 5 -3 6 -10 3 -16 -4 -7 -2 -8 4 -4 6 4 23 0 36 -9 14 -9 29 -14 35
-11 11 7 24 -22 15 -35 -12 -20 55 -7 184 37 76 25 155 54 177 63 64 29 95 34
40 6 -72 -35 -157 -66 -345 -125 -91 -28 -371 -119 -624 -202 -252 -83 -472
-151 -490 -151 -56 -1 -241 16 -223 20 14 4 17 15 17 59 0 49 -2 54 -22 54
-15 0 -19 3 -11 8 7 4 -7 7 -30 7 -23 0 -59 4 -80 8 -41 9 -49 -3 -22 -33 14
-15 14 -19 -1 -30 -18 -16 -49 -2 -49 21 0 20 -51 12 -99 -14 -47 -26 -50 -40
-10 -49 16 -4 2 -5 -31 -1 -33 3 -73 7 -88 8 -16 2 -44 6 -63 10 -74 13 -25
-16 163 -100 373 -166 370 -165 350 -180 -22 -16 -12 -23 45 -34 35 -6 39 -10
24 -16 -11 -5 -41 -4 -68 2 -57 11 -36 26 -225 -155 -73 -69 -133 -131 -133
-137 0 -5 21 12 45 39 25 27 48 47 51 44 2 -3 -7 -27 -21 -53 -14 -26 -25 -59
-25 -71 0 -13 -9 -33 -21 -45 l-21 -21 33 -66 c40 -81 44 -150 11 -206 -15
-26 -18 -36 -8 -36 18 0 41 28 59 70 13 29 16 31 16 12 1 -13 -6 -37 -15 -53
-8 -17 -13 -33 -10 -36 7 -7 56 24 56 35 0 20 40 50 59 45 12 -3 39 2 61 11
22 9 58 16 80 16 30 0 40 4 45 20 3 11 3 25 -1 31 -3 6 0 15 7 20 14 10 9 16
-53 60 -22 16 -22 16 29 33 28 9 57 24 63 32 14 16 46 19 55 4 9 -14 -6 -110
-17 -104 -5 3 -6 26 -2 51 6 40 5 45 -12 41 -29 -5 -38 -85 -14 -118 17 -24
22 -25 105 -23 48 0 83 -3 79 -7 -8 -7 -256 -125 -401 -191 -24 -10 -62 -28
-85 -38 -251 -114 -302 -128 -340 -94 -17 15 -18 15 -18 -3 1 -49 62 -73 149
-57 160 30 710 289 1063 500 86 52 190 105 229 118 l73 25 36 -25 c20 -14 41
-25 47 -25 15 0 22 -20 39 -114 9 -44 22 -91 29 -105 23 -44 81 -92 121 -102
64 -14 246 -11 294 6 44 15 60 13 60 -9 0 -7 9 -25 21 -40 18 -22 28 -26 74
-26 67 0 196 26 213 43 18 19 33 169 22 225 -5 26 -18 76 -28 112 -26 84 -32
136 -24 185 7 36 11 41 54 56 25 9 79 24 120 34 78 19 193 58 268 91 3 1 15 5
27 9 13 4 20 11 17 16 -3 5 2 9 10 9 9 0 16 7 16 16 0 10 6 14 15 10 8 -3 25
-1 37 5 21 9 21 9 -5 4 -15 -3 -27 -2 -26 2 4 21 -4 21 -38 0 -39 -24 -116
-57 -133 -57 -6 0 -10 5 -10 11 0 5 5 7 12 3 6 -4 8 -3 4 4 -3 5 0 12 6 15 11
4 -10 3 -70 -2 -7 -1 -10 -6 -7 -11 9 -15 -35 -28 -159 -51 -61 -10 -131 -23
-156 -28 -57 -12 -175 -23 -169 -16 3 3 21 10 40 17 19 7 115 67 214 134 99
66 207 137 240 157 33 20 71 46 85 57 l25 21 -42 -20 c-23 -12 -45 -21 -48
-21 -8 0 -6 73 3 86 4 6 15 13 25 17 9 4 17 17 17 30 0 15 66 123 163 268 203
305 214 323 296 489 121 244 214 506 261 735 32 151 30 205 -8 296 -36 83 -78
147 -84 128 -3 -9 -13 -7 -39 7 -49 27 -79 51 -73 57 3 2 -11 14 -30 26 -19
12 -45 38 -56 57 -16 25 -29 34 -48 34 -31 0 -92 21 -92 32 0 4 -7 4 -17 1
-10 -4 -14 -2 -10 4 4 6 -1 13 -11 16 -9 3 -32 10 -49 15 l-33 11 15 -29 c26
-50 73 -252 84 -359 21 -205 11 -311 -30 -317 -9 -1 -27 -5 -39 -9 -20 -6 -22
-4 -17 16 34 137 47 447 22 561 -17 82 -51 162 -65 153 -5 -3 -10 -1 -10 5 0
7 -7 9 -16 6 -8 -3 -12 -2 -9 4 3 6 2 10 -4 10 -5 0 -13 -5 -16 -10z m-3207
-317 c-10 -2 -26 -2 -35 0 -10 3 -2 5 17 5 19 0 27 -2 18 -5z m77 -13 c-4 -6
5 -10 19 -10 20 0 29 -8 41 -37 9 -20 12 -40 8 -44 -5 -5 -56 -11 -116 -15
-105 -7 -107 -7 -107 15 0 12 6 37 14 56 14 33 17 34 78 38 35 2 64 4 66 5 2
1 0 -2 -3 -8z m522 -36 c-3 -3 -12 -4 -19 -1 -8 3 -5 6 6 6 11 1 17 -2 13 -5z
m50 -10 c-3 -3 -12 -4 -19 -1 -8 3 -5 6 6 6 11 1 17 -2 13 -5z m175 -30 c129
-25 191 -45 205 -67 3 -5 2 -8 -3 -5 -46 24 -99 40 -214 63 -124 25 -162 35
-132 35 7 0 72 -12 144 -26z m511 -21 c-13 -2 -23 -10 -23 -18 0 -7 -3 -20 -6
-28 -4 -12 8 -18 53 -28 32 -8 51 -15 43 -16 -8 -1 -73 10 -145 25 -100 21
-131 31 -133 44 -2 12 5 18 30 21 45 5 209 5 181 0z m-231 -84 c51 -12 104
-28 118 -36 25 -14 25 -14 1 -7 -14 4 -21 2 -17 -4 3 -5 -11 -18 -32 -28 -29
-14 -67 -19 -170 -22 -151 -4 -202 2 -202 24 0 39 98 93 172 94 20 0 78 -10
130 -21z m636 -31 c47 -22 60 -59 20 -57 -13 0 -17 3 -10 6 23 9 12 23 -45 53
-62 33 -36 31 35 -2z m-285 15 c-7 -2 -19 -2 -25 0 -7 3 -2 5 12 5 14 0 19 -2
13 -5z m77 -13 c20 -6 21 -8 5 -8 -11 0 -31 4 -45 8 -20 6 -21 8 -5 8 11 0 31
-4 45 -8z m-1067 -90 c82 -67 100 -91 77 -105 -15 -9 -440 135 -440 149 0 24
13 26 144 26 l131 0 88 -70z m3338 32 c-5 -9 -12 -44 -16 -77 -16 -144 -92
-419 -164 -598 -62 -154 -201 -426 -285 -557 -13 -19 -62 -97 -110 -172 -48
-76 -90 -138 -92 -138 -3 0 -2 23 2 52 6 46 5 51 -10 45 -24 -9 -75 -19 -58
-11 19 9 14 24 -5 18 -15 -5 -16 -4 -3 5 8 5 25 8 37 5 19 -5 23 -1 28 30 4
20 11 36 16 36 5 0 6 7 3 15 -6 16 -24 16 -37 0 -5 -6 -6 -2 -3 9 4 10 11 39
18 63 9 36 18 48 44 60 18 9 30 21 27 26 -4 6 -1 7 6 2 13 -7 60 12 73 30 4 5
5 19 2 30 -4 18 -4 18 6 3 6 -10 18 -18 27 -18 13 0 13 2 2 16 -12 15 -11 16
10 9 19 -6 23 -4 18 8 -3 8 0 18 8 21 8 3 13 0 11 -7 -1 -7 -1 -9 1 -4 3 4 9
5 14 2 5 -4 6 1 3 9 -3 9 -9 16 -13 16 -3 0 -7 11 -7 25 -2 21 1 24 12 14 9
-8 14 -8 14 -1 0 6 -5 14 -11 18 -8 5 -8 9 1 14 14 9 -8 85 -52 173 -16 32
-26 62 -23 67 3 4 2 15 -1 24 -6 15 -8 15 -20 -1 -7 -10 -13 -22 -14 -28 0 -5
5 -3 10 5 5 8 10 10 10 4 0 -7 -17 -38 -37 -70 -21 -31 -37 -64 -35 -72 2 -8
-1 -11 -7 -8 -5 4 -15 -10 -22 -29 -7 -19 -16 -35 -20 -35 -4 0 -11 -9 -14
-21 -10 -32 -86 -149 -96 -149 -11 0 -8 5 56 115 53 89 181 347 234 470 19 44
42 98 51 120 10 22 23 58 29 80 7 22 15 47 18 55 3 8 8 24 10 35 5 32 34 117
49 146 8 16 30 33 56 43 62 25 84 34 168 70 79 34 96 36 81 8z m-2074 12 c-3
-3 -12 -4 -19 -1 -8 3 -5 6 6 6 11 1 17 -2 13 -5z m988 -18 c26 -17 36 -56 25
-95 -8 -29 -25 -31 -92 -10 -32 10 -38 17 -43 50 -4 22 -14 43 -23 48 -15 8
-15 10 -2 15 50 17 101 14 135 -8z m-125 -36 c0 -5 -4 -10 -9 -10 -6 0 -13 5
-16 10 -3 6 1 10 9 10 9 0 16 -4 16 -10z m-1951 -49 c-12 -17 -21 -45 -22 -70
-3 -56 -17 -52 -17 4 0 37 5 51 26 70 35 33 39 31 13 -4z m2357 -66 c-22 -17
-297 -127 -303 -121 -2 2 13 11 34 19 145 61 279 116 283 116 3 0 -4 -6 -14
-14z m-926 -5 c18 -12 2 -12 -25 0 -13 6 -15 9 -5 9 8 0 22 -4 30 -9z m1271
-107 c-18 -71 -77 -246 -100 -298 -5 -11 -16 -40 -26 -65 -27 -70 -49 -112
-53 -100 -2 6 3 19 12 29 18 20 21 47 6 56 -5 3 -10 15 -10 26 0 10 -4 19 -8
19 -5 0 -14 12 -20 26 -10 20 -9 28 3 40 8 9 13 20 9 25 -3 6 1 20 8 32 8 12
22 44 32 71 10 26 21 44 25 38 3 -6 7 9 7 31 2 45 34 127 59 147 12 10 15 10
15 -1 0 -9 3 -10 8 -3 4 6 16 16 27 22 29 16 30 -1 6 -95z m-2726 47 c-3 -5
-11 -10 -16 -10 -6 0 -7 5 -4 10 3 6 11 10 16 10 6 0 7 -4 4 -10z m2598 -5
c12 -5 11 -14 -5 -62 -10 -31 -18 -62 -18 -70 0 -8 -5 -11 -12 -7 -6 4 -8 3
-5 -3 9 -14 -23 -104 -34 -97 -5 3 -6 -2 -3 -10 3 -9 -7 -42 -24 -74 -20 -42
-26 -64 -20 -76 13 -23 30 -20 28 7 -1 12 -2 31 -1 42 1 17 4 15 16 -9 9 -16
13 -37 10 -46 -3 -11 1 -20 10 -24 20 -7 19 -30 -1 -47 -15 -12 -16 -11 -10 9
11 32 -10 27 -23 -5 -8 -21 -10 -22 -7 -5 2 12 0 22 -6 22 -11 0 -60 55 -70
79 -6 14 -7 14 -7 -1 -1 -19 -17 -25 -23 -9 -1 5 -12 11 -23 13 -11 2 -23 14
-26 28 -6 24 -7 24 -8 -5 -1 -23 -3 -27 -11 -15 -5 8 -7 23 -4 33 3 11 0 17
-10 17 -9 0 -16 5 -16 10 0 6 -9 10 -20 10 -17 0 -20 7 -20 45 0 31 5 47 18
55 16 11 16 11 0 6 -14 -4 -18 0 -18 19 0 14 -4 25 -9 25 -4 0 -14 -48 -22
-107 l-14 -108 -3 69 c-2 43 -8 74 -17 83 -10 9 -13 24 -9 41 5 26 5 27 -11 7
-17 -20 -17 -19 -13 8 4 22 2 27 -16 28 -40 1 14 18 61 18 32 1 43 -3 46 -16
4 -14 5 -12 6 5 1 19 5 21 25 16 14 -3 33 -1 43 5 14 8 15 11 3 11 -8 1 4 8
27 16 23 8 46 14 50 13 26 -4 53 2 47 12 -4 7 3 10 17 9 37 -3 46 -1 63 15 12
13 20 14 37 5 24 -13 41 -4 19 10 -17 11 -9 13 13 5z m-573 -74 c-20 -12 -87
-25 -78 -16 4 4 22 11 40 15 45 11 56 11 38 1z m-1790 -81 c0 -5 8 -10 18 -10
10 0 13 -3 6 -8 -6 -4 -13 -13 -15 -20 -2 -7 -9 1 -16 18 -6 16 -7 30 -2 30 5
0 9 -4 9 -10z m55 -94 c18 -19 28 -33 20 -32 -13 2 -72 66 -61 66 4 0 22 -15
41 -34z m59 -61 c3 -8 9 -14 13 -13 4 2 9 0 11 -4 4 -13 -11 -7 -37 13 -16 13
-19 19 -8 19 8 0 17 -7 21 -15z m50 -47 c-5 -8 -2 -9 9 -5 11 4 17 1 17 -8 0
-8 5 -15 10 -15 6 0 10 -5 10 -10 0 -6 -13 -1 -30 12 -31 22 -39 38 -19 38 5
0 7 -5 3 -12z m191 -135 c26 -38 26 -38 19 -8 -7 28 -6 29 10 16 15 -13 19
-13 26 -1 9 15 9 16 25 -35 3 -9 -2 -15 -13 -15 -13 0 -14 -2 -3 -9 9 -6 11
-16 5 -32 -4 -13 -8 -57 -9 -97 0 -40 -5 -76 -10 -80 -6 -4 -11 -36 -11 -72
-3 -129 -7 -175 -18 -182 -8 -5 -7 -8 1 -8 9 0 10 -7 3 -24 -5 -13 -6 -27 -3
-30 4 -3 0 -6 -8 -6 -8 0 -21 -9 -29 -19 -7 -11 -17 -18 -21 -15 -5 3 -17 -4
-29 -16 -25 -25 -31 -25 -24 -2 3 9 -4 2 -16 -16 -12 -18 -23 -44 -24 -57 -1
-20 -3 -23 -12 -11 -9 12 -12 12 -22 -5 -7 -11 -8 -19 -2 -19 5 0 7 -7 3 -16
-5 -15 -7 -15 -15 1 -5 9 -7 23 -4 31 3 9 1 12 -4 9 -6 -3 -10 -21 -10 -38 -1
-31 -1 -31 -17 -12 -14 17 -15 18 -9 2 4 -14 2 -18 -12 -15 -9 2 -16 10 -14
16 1 7 -3 12 -9 12 -6 0 -9 -6 -6 -14 3 -8 -1 -20 -9 -26 -12 -10 -14 -8 -14
14 0 16 -4 25 -10 21 -6 -4 -8 -11 -4 -16 3 -6 -6 -22 -20 -36 l-26 -26 0 27
c0 32 76 120 97 112 8 -3 11 -2 8 4 -3 5 7 16 22 24 73 37 87 67 98 206 12
158 36 407 42 430 7 32 31 70 43 70 5 0 21 -17 35 -37z m1201 1 c0 -10 4 -31
8 -47 5 -15 4 -33 -2 -40 -9 -12 -25 -122 -23 -167 1 -26 -35 -146 -64 -214
-29 -67 -80 -130 -97 -120 -4 3 -1 16 8 29 9 13 12 30 8 36 -4 7 -3 9 3 6 11
-7 28 52 18 61 -3 3 -5 -2 -5 -10 0 -9 -7 -18 -15 -22 -21 -8 -19 2 11 41 14
18 30 47 36 63 5 16 14 27 19 24 5 -3 6 1 4 9 -3 7 13 65 36 128 37 104 40
120 35 182 -4 51 -2 67 7 64 7 -2 12 -12 13 -23z m856 -126 c-6 -6 -7 0 -4 19
5 21 7 23 10 9 2 -10 0 -22 -6 -28z m-424 -460 c-105 -173 -123 -206 -120
-220 1 -5 -2 -8 -7 -8 -5 0 -12 -7 -15 -16 -4 -10 -2 -13 6 -8 21 13 -16 -32
-91 -112 -41 -44 -110 -123 -153 -177 -86 -108 -90 -107 -64 20 12 57 18 163
9 163 -1 0 -25 -9 -52 -20 -37 -14 -51 -16 -55 -7 -3 9 -9 7 -18 -4 -8 -9 -31
-22 -53 -28 -62 -17 -76 -12 -21 7 52 18 74 40 62 63 -22 46 -45 74 -67 80
l-24 7 24 1 c14 1 32 -6 42 -15 15 -13 24 -14 50 -5 18 6 33 10 35 9 1 -2 4
-18 6 -37 4 -45 -17 -51 -31 -10 -8 24 -14 30 -22 22 -15 -15 -3 -60 19 -72
22 -12 65 7 70 30 1 9 -2 29 -9 45 -16 39 -21 91 -11 98 5 3 27 8 49 12 37 6
41 4 47 -20 3 -14 10 -26 14 -26 4 0 43 14 85 30 43 17 80 30 83 30 2 0 4 -13
4 -29 0 -39 12 -45 32 -18 86 115 248 354 248 365 0 11 23 33 28 27 2 -2 -43
-82 -100 -177z m232 102 c0 -5 -9 -10 -20 -10 -11 0 -20 5 -20 10 0 6 9 10 20
10 11 0 20 -4 20 -10z m20 -40 c0 -16 -4 -30 -8 -30 -5 0 -7 14 -4 30 2 17 6
30 8 30 2 0 4 -13 4 -30z m-134 -50 c-3 -17 -2 -29 3 -26 4 3 17 -1 27 -9 10
-8 31 -15 47 -15 42 0 32 -32 -15 -44 -30 -7 -78 -50 -78 -69 0 -7 -9 -21 -21
-30 -11 -10 -18 -24 -15 -32 3 -8 -3 -16 -13 -20 -22 -7 -69 -55 -53 -55 6 0
40 13 74 30 34 16 63 28 65 26 2 -2 -1 -23 -6 -47 -6 -24 -11 -61 -11 -82 0
-35 2 -37 25 -31 24 6 25 4 25 -35 l0 -41 -107 -51 c-165 -77 -155 -78 -152
27 1 49 -2 89 -8 91 -5 2 -39 -10 -75 -26 l-65 -30 -6 -53 c-4 -29 -7 -72 -7
-94 l0 -41 -137 -50 -138 -50 -3 31 c-3 22 2 35 18 48 33 26 45 22 25 -9 -10
-18 -1 -12 26 17 295 310 343 364 421 480 109 161 151 220 156 220 3 0 2 -14
-2 -30z m-1061 -70 c3 -5 2 -10 -4 -10 -5 0 -13 5 -16 10 -3 6 -2 10 4 10 5 0
13 -4 16 -10z m-775 -28 c0 -5 -7 -9 -15 -9 -8 0 -12 4 -9 9 3 4 9 8 15 8 5 0
9 -4 9 -8z m1859 -105 c-13 -6 -30 -9 -38 -8 -7 1 -10 -2 -6 -8 3 -7 0 -8 -9
-5 -21 8 2 33 27 28 9 -1 17 1 17 6 0 5 7 7 17 3 13 -5 12 -8 -8 -16z m-857
-150 c33 -104 33 -96 -8 -113 -20 -8 -47 -13 -60 -10 -15 4 -27 0 -36 -11 -14
-19 -175 -76 -190 -67 -4 3 -8 11 -8 17 0 8 3 7 9 -2 14 -21 33 -2 26 26 l-6
25 29 -20 c35 -26 62 -15 32 13 -13 11 -18 25 -14 37 10 34 -5 58 -39 59 -30
1 -31 1 -7 8 14 4 30 6 37 4 13 -5 31 -47 35 -83 2 -20 9 -26 36 -28 39 -4 68
14 52 33 -5 6 -7 15 -3 18 10 11 -18 37 -40 37 -11 0 -18 3 -14 6 3 3 19 3 35
-1 20 -4 32 -14 36 -30 8 -31 35 -39 78 -21 l36 15 -22 66 c-24 73 -52 92 -42
28 5 -35 5 -36 -5 -10 -13 34 -6 57 18 57 13 0 23 -15 35 -53z m15 21 c-3 -8
-6 -5 -6 6 -1 11 2 17 5 13 3 -3 4 -12 1 -19z m66 15 c3 -5 -1 -14 -9 -21 -8
-7 -14 -11 -14 -8 0 2 -3 11 -6 20 -6 16 20 24 29 9z m32 -58 c0 -5 -10 -11
-22 -13 -16 -2 -23 2 -23 13 0 11 7 15 23 13 12 -2 22 -7 22 -13z m-525 -49
c0 -13 -9 -35 -21 -50 -19 -25 -20 -26 -2 -32 93 -32 123 -63 123 -130 0 -28
-9 -43 -45 -79 -24 -25 -49 -45 -55 -45 -12 0 -13 -20 -1 -38 6 -10 39 6 132
64 68 42 140 86 159 97 19 10 50 28 68 39 17 11 32 17 32 14 0 -3 -79 -58
-176 -123 -172 -115 -175 -118 -143 -124 19 -3 43 -10 53 -16 15 -8 23 -7 34
4 10 10 25 13 45 9 16 -3 46 -6 67 -6 30 0 41 -6 55 -26 24 -37 4 -54 -23 -20
-21 28 -47 34 -55 14 -2 -7 2 -21 11 -30 9 -11 10 -18 4 -18 -6 0 -14 5 -17
10 -3 6 -31 10 -62 10 -39 0 -63 6 -84 20 -23 17 -37 20 -77 14 l-49 -6 -11
43 c-7 24 -16 51 -21 58 -8 12 2 21 41 40 66 34 100 90 77 130 -18 32 -79 67
-130 75 -22 3 -39 9 -39 11 0 3 16 19 35 36 19 17 35 39 35 48 0 21 9 31 27
31 7 0 13 -11 13 -24z m380 4 c0 -23 -25 -27 -33 -6 -7 16 1 26 20 26 7 0 13
-9 13 -20z m-303 -12 c-3 -8 -6 -5 -6 6 -1 11 2 17 5 13 3 -3 4 -12 1 -19z
m83 -7 c0 -3 -7 -14 -14 -24 -13 -16 -14 -16 -19 5 -3 12 -4 25 -1 29 5 9 34
1 34 -10z m-1040 -11 c16 -10 -86 -4 -180 11 -39 6 -24 7 55 3 60 -3 117 -10
125 -14z m1140 10 c0 -5 -5 -10 -11 -10 -5 0 -7 5 -4 10 3 6 8 10 11 10 2 0 4
-4 4 -10z m-434 -57 c-1 -36 1 -38 44 -52 140 -43 162 -59 140 -101 -21 -40
-60 -50 -197 -49 -70 1 -140 -4 -154 -9 -26 -10 -173 -16 -279 -11 l-55 2 70
9 c166 19 279 29 417 34 130 5 149 8 165 26 17 19 17 20 0 33 -10 7 -49 21
-87 30 -38 9 -75 24 -83 33 -31 37 -27 92 8 92 8 0 12 -14 11 -37z m449 27
c-3 -5 -11 -10 -16 -10 -6 0 -7 5 -4 10 3 6 11 10 16 10 6 0 7 -4 4 -10z
m-962 -247 c-7 -2 -19 -2 -25 0 -7 3 -2 5 12 5 14 0 19 -2 13 -5z m2057 -47
c0 -2 -7 -7 -16 -10 -8 -3 -12 -2 -9 4 6 10 25 14 25 6z m-530 -36 c0 -5 -7
-10 -16 -10 -8 0 -12 5 -9 10 3 6 10 10 16 10 5 0 9 -4 9 -10z m-50 -10 c0 -5
-7 -7 -15 -4 -8 4 -15 8 -15 10 0 2 7 4 15 4 8 0 15 -4 15 -10z m-1665 -50
c-3 -5 -11 -10 -16 -10 -6 0 -7 5 -4 10 3 6 11 10 16 10 6 0 7 -4 4 -10z
m1860 -40 c-3 -5 -13 -10 -21 -10 -8 0 -14 5 -14 10 0 6 9 10 21 10 11 0 17
-4 14 -10z m-80 -9 c37 -8 25 -16 -36 -25 -36 -5 -48 -4 -52 8 -3 8 -3 17 0
20 8 7 47 6 88 -3z m-1159 -26 c3 -8 26 -24 50 -36 50 -24 92 -21 156 12 23
12 56 19 85 18 l48 -1 -46 -8 c-25 -4 -68 -20 -95 -34 -56 -30 -119 -34 -164
-11 -35 18 -38 10 -8 -22 28 -30 106 -31 169 -4 24 10 60 22 79 25 19 3 28 3
20 0 -8 -3 -51 -24 -96 -46 -76 -37 -83 -38 -128 -28 -44 10 -49 9 -90 -20
-41 -28 -50 -45 -58 -107 -1 -7 -6 -13 -11 -13 -5 0 -31 -11 -59 -25 -27 -14
-52 -25 -54 -25 -11 0 -2 49 11 60 8 7 15 23 15 36 0 28 2 27 -39 13 -21 -7
-33 -20 -37 -37 -4 -15 -11 -33 -17 -39 -10 -13 -79 -18 -90 -7 -9 9 11 53 38
86 14 16 25 38 25 49 0 10 5 19 10 19 6 0 10 -7 10 -15 0 -8 2 -15 5 -15 3 0
45 20 94 45 49 25 94 45 100 45 7 0 23 11 37 25 18 18 23 31 18 50 -7 27 12
36 22 10z m834 -51 c0 -8 5 -14 11 -14 5 0 7 5 3 12 -4 7 -3 8 4 4 9 -5 8 -12
-1 -26 -21 -34 -28 -28 -42 34 -5 26 -4 28 9 17 9 -8 16 -20 16 -27z m77 10
c-3 -3 -12 -4 -19 -1 -8 3 -5 6 6 6 11 1 17 -2 13 -5z m67 -89 c4 -19 4 -52 0
-72 -7 -36 -8 -36 -15 -13 -4 14 -7 34 -7 45 0 16 2 15 8 -5 11 -33 11 -6 1
47 -5 23 -5 40 -1 38 4 -3 11 -21 14 -40z m52 -212 c27 -25 25 -29 -8 -12 -21
11 -48 67 -47 96 0 10 7 0 15 -22 8 -22 26 -50 40 -62z m-1668 -31 c3 -9 -2
-13 -14 -10 -9 1 -19 9 -22 16 -3 9 2 13 14 10 9 -1 19 -9 22 -16z"/>
<path d="M4532 2758 c-1 -18 -5 -42 -8 -53 -2 -11 4 -2 16 20 17 32 18 41 7
52 -10 11 -13 7 -15 -19z"/>
<path d="M4000 3101 c0 -6 4 -11 9 -11 5 0 12 -12 14 -27 4 -22 4 -20 3 6 0
19 -7 36 -13 39 -7 2 -13 -1 -13 -7z"/>
<path d="M4290 2920 c0 -5 5 -10 10 -10 6 0 10 5 10 10 0 6 -4 10 -10 10 -5 0
-10 -4 -10 -10z"/>
<path d="M2385 2739 c-4 -6 -5 -12 -2 -15 2 -3 7 2 10 11 7 17 1 20 -8 4z"/>
<path d="M2455 2590 c-3 -5 -1 -10 4 -10 6 0 11 5 11 10 0 6 -2 10 -4 10 -3 0
-8 -4 -11 -10z"/>
<path d="M2450 2520 c0 -5 5 -10 10 -10 6 0 10 5 10 10 0 6 -4 10 -10 10 -5 0
-10 -4 -10 -10z"/>
<path d="M2430 2360 c0 -5 5 -10 11 -10 5 0 7 5 4 10 -3 6 -8 10 -11 10 -2 0
-4 -4 -4 -10z"/>
<path d="M2135 1999 c-3 -4 2 -6 10 -5 21 3 28 13 10 13 -9 0 -18 -4 -20 -8z"/>
<path d="M3610 1946 c0 -26 43 -127 52 -124 14 5 14 8 -6 76 -11 36 -25 62
-33 62 -7 0 -13 -6 -13 -14z"/>
<path d="M3566 1941 c-10 -15 35 -131 51 -131 15 0 15 6 -15 93 -16 46 -25 56
-36 38z"/>
<path d="M3097 1293 c-14 -13 -6 -23 17 -23 13 0 29 7 36 15 11 13 8 15 -17
15 -16 0 -33 -3 -36 -7z"/>
<path d="M3750 1240 c8 -5 20 -10 25 -10 6 0 3 5 -5 10 -8 5 -19 10 -25 10 -5
0 -3 -5 5 -10z"/>
<path d="M2623 1123 c-7 -2 -13 -18 -13 -34 l0 -30 30 23 c17 12 29 27 27 33
-4 12 -26 16 -44 8z"/>
<path d="M2352 978 c-30 -15 -24 -43 8 -43 20 0 26 6 28 28 4 29 -1 31 -36 15z"/>
<path d="M2498 3995 c-3 -3 -58 -12 -124 -20 -67 -9 -121 -20 -125 -27 -5 -7
-6 -14 -5 -16 12 -11 276 46 276 60 0 9 -14 11 -22 3z"/>
<path d="M2205 3950 c-19 -8 -19 -9 2 -9 12 -1 25 4 28 9 7 12 -2 12 -30 0z"/>
<path d="M2100 3940 l-65 -7 62 -1 c34 -1 65 3 68 8 3 6 5 9 3 8 -2 -1 -32 -4
-68 -8z"/>
<path d="M3212 3812 c-23 -7 -23 -7 7 -25 31 -18 48 -10 37 18 -6 16 -9 16
-44 7z"/>
<path d="M2730 3800 c0 -13 20 -13 40 0 12 8 9 10 -12 10 -16 0 -28 -4 -28
-10z"/>
<path d="M968 3773 c7 -3 16 -2 19 1 4 3 -2 6 -13 5 -11 0 -14 -3 -6 -6z"/>
<path d="M1898 3763 c6 -2 18 -2 25 0 6 3 1 5 -13 5 -14 0 -19 -2 -12 -5z"/>
<path d="M5105 3597 l33 -82 -14 -120 c-16 -130 -72 -371 -110 -474 -13 -35
-23 -66 -20 -68 11 -11 118 326 146 461 40 190 41 214 13 278 -14 32 -34 60
-44 63 -11 4 -17 11 -14 16 4 5 0 9 -8 9 -11 0 -7 -20 18 -83z"/>
<path d="M5160 3649 c0 -4 11 -31 25 -62 25 -54 25 -57 15 -169 -6 -62 -13
-120 -16 -130 -3 -9 -1 -19 4 -22 8 -5 33 147 37 226 1 21 5 41 8 45 4 3 4 18
1 32 -3 14 -8 37 -10 51 -5 22 -7 23 -15 7 -10 -16 -12 -16 -29 5 -11 13 -19
20 -20 17z"/>
<path d="M5177 3224 c-4 -4 -7 -14 -7 -23 0 -11 3 -12 11 -4 6 6 10 16 7 23
-2 6 -7 8 -11 4z"/>
<path d="M5160 3159 c0 -5 5 -7 10 -4 6 3 10 8 10 11 0 2 -4 4 -10 4 -5 0 -10
-5 -10 -11z"/>
<path d="M5156 3129 c-14 -39 -27 -102 -23 -106 3 -2 13 21 22 52 9 32 14 60
11 63 -3 2 -8 -1 -10 -9z"/>
<path d="M5098 2917 c-14 -42 -22 -80 -17 -83 5 -3 9 3 9 13 0 10 9 42 20 72
12 29 19 58 17 64 -2 6 -15 -24 -29 -66z"/>
<path d="M5055 2790 c-9 -42 -75 -194 -140 -322 -56 -111 -66 -141 -22 -65 72
123 186 377 170 377 -4 0 -2 5 5 12 14 14 16 28 3 28 -5 0 -12 -14 -16 -30z"/>
<path d="M3426 2773 c-6 -14 -5 -15 5 -6 7 7 10 15 7 18 -3 3 -9 -2 -12 -12z"/>
<path d="M3401 2704 c0 -11 3 -14 6 -6 3 7 2 16 -1 19 -3 4 -6 -2 -5 -13z"/>
<path d="M3365 2421 c-3 -5 -1 -12 5 -16 5 -3 10 1 10 9 0 18 -6 21 -15 7z"/>
<path d="M3350 2354 c0 -8 5 -12 10 -9 6 4 8 11 5 16 -9 14 -15 11 -15 -7z"/>
<path d="M4840 2330 c-6 -11 -8 -20 -6 -20 3 0 10 9 16 20 6 11 8 20 6 20 -3
0 -10 -9 -16 -20z"/>
<path d="M5077 2333 c-4 -3 -7 -11 -7 -17 0 -6 5 -5 12 2 6 6 9 14 7 17 -3 3
-9 2 -12 -2z"/>
<path d="M5045 2310 c-3 -5 -1 -10 4 -10 6 0 11 5 11 10 0 6 -2 10 -4 10 -3 0
-8 -4 -11 -10z"/>
<path d="M3340 2284 c0 -8 5 -12 10 -9 6 4 8 11 5 16 -9 14 -15 11 -15 -7z"/>
<path d="M5053 2273 c-21 -19 -47 -73 -35 -73 17 1 32 18 47 53 17 42 16 44
-12 20z"/>
<path d="M4806 2222 c-20 -32 -44 -182 -30 -182 4 0 28 17 53 37 25 20 47 37
48 38 1 0 -7 27 -19 58 -19 51 -39 70 -52 49z"/>
<path d="M3200 2209 c0 -5 5 -7 10 -4 6 3 10 8 10 11 0 2 -4 4 -10 4 -5 0 -10
-5 -10 -11z"/>
<path d="M3165 2160 c4 -6 11 -8 16 -5 14 9 11 15 -7 15 -8 0 -12 -5 -9 -10z"/>
<path d="M3232 2140 c-10 -17 -10 -20 3 -20 8 0 15 9 15 20 0 11 -1 20 -3 20
-1 0 -8 -9 -15 -20z"/>
<path d="M4599 2131 c-61 -27 -61 -25 -85 -165 -6 -36 -5 -38 15 -31 17 5 21
2 21 -18 0 -13 3 -27 7 -30 13 -13 33 16 33 49 0 25 7 38 25 50 15 10 25 26
25 41 0 13 5 44 11 68 6 24 9 48 8 52 -2 5 -29 -2 -60 -16z"/>
<path d="M2946 2014 c-5 -14 -4 -15 9 -4 17 14 19 20 6 20 -5 0 -12 -7 -15
-16z"/>
<path d="M1706 1851 c-4 -5 -2 -12 3 -15 5 -4 12 -2 15 3 4 5 2 12 -3 15 -5 4
-12 2 -15 -3z"/>
<path d="M1626 1802 c-3 -5 1 -9 9 -9 8 0 12 4 9 9 -3 4 -7 8 -9 8 -2 0 -6 -4
-9 -8z"/>
<path d="M4860 1709 c-43 -15 -79 -34 -132 -72 -27 -18 -53 -15 -62 9 -3 9 1
14 12 14 18 1 52 23 52 34 0 3 -9 6 -20 6 -11 0 -20 -4 -20 -10 0 -5 -4 -10
-10 -10 -5 0 -6 8 -3 18 6 15 5 15 -10 3 -9 -7 -14 -17 -11 -23 3 -5 -6 -6
-21 -2 -24 6 -27 4 -20 -15 5 -16 3 -20 -9 -15 -9 4 -16 1 -16 -6 0 -8 8 -10
24 -6 59 15 31 -22 -56 -74 -63 -37 -72 -51 -33 -48 14 1 25 7 25 13 0 6 14
16 30 22 17 6 30 7 30 2 0 -5 5 -9 10 -9 6 0 10 10 10 21 0 18 2 20 16 8 9 -7
18 -9 22 -3 4 5 12 9 17 9 6 0 27 7 47 14 32 13 35 16 21 26 -13 10 -13 14 -3
20 9 5 11 4 6 -3 -5 -8 3 -12 26 -12 25 0 29 3 18 10 -11 7 -7 10 17 10 17 0
35 5 38 10 4 6 11 7 17 4 6 -4 8 -2 4 4 -4 7 10 13 39 17 25 4 45 11 45 16 0
5 6 6 13 4 6 -3 24 3 39 13 l27 18 -67 -1 c-36 0 -87 -7 -112 -16z m-15 -49
c3 -5 -1 -10 -10 -10 -9 0 -13 5 -10 10 3 6 8 10 10 10 2 0 7 -4 10 -10z"/>
<path d="M1441 1645 c1 -19 18 -51 18 -35 0 8 -4 22 -9 30 -5 8 -9 11 -9 5z"/>
<path d="M4554 1615 c3 -8 0 -15 -6 -15 -6 0 -9 -3 -5 -6 3 -3 15 0 26 8 22
15 18 28 -7 28 -8 0 -12 -6 -8 -15z"/>
<path d="M4495 1570 c-4 -6 -11 -7 -17 -4 -6 4 -8 2 -5 -4 4 -5 16 -8 27 -5
11 3 17 9 14 14 -7 12 -11 11 -19 -1z"/>
<path d="M1656 1541 c-3 -4 5 -34 17 -67 21 -58 23 -60 52 -53 17 3 44 12 60
19 l30 12 -24 19 c-13 11 -31 17 -38 15 -8 -3 -12 -2 -8 3 3 5 -15 21 -40 34
-25 14 -47 22 -49 18z"/>
<path d="M4414 1538 c-4 -5 -19 -18 -36 -28 -21 -13 -25 -19 -14 -23 8 -3 17
1 20 9 3 8 10 14 16 14 6 0 8 -4 5 -10 -3 -6 1 -7 10 -4 8 4 20 15 26 26 6 11
17 17 25 14 8 -3 13 -2 10 3 -8 12 -55 11 -62 -1z m18 -5 c-6 -2 -10 -9 -6
-14 3 -5 0 -9 -5 -9 -12 0 -14 13 -4 23 3 4 11 7 17 6 6 0 5 -3 -2 -6z"/>
<path d="M4580 1529 c0 -5 5 -7 10 -4 6 3 10 8 10 11 0 2 -4 4 -10 4 -5 0 -10
-5 -10 -11z"/>
<path d="M1790 1383 c-51 -16 -70 -21 -85 -22 -5 -1 1 -11 15 -22 22 -18 22
-19 3 -10 -12 6 -24 15 -27 20 -9 14 -65 -10 -59 -25 2 -7 -3 -34 -13 -61 -33
-94 -43 -134 -34 -128 6 4 10 13 10 21 0 8 7 14 15 14 8 0 15 4 15 9 0 5 13
15 29 23 26 12 201 171 201 182 0 12 -30 12 -70 -1z"/>
<path d="M1725 1120 c-3 -5 -1 -10 4 -10 6 0 11 5 11 10 0 6 -2 10 -4 10 -3 0
-8 -4 -11 -10z"/>
<path d="M1685 1079 c-11 -16 -1 -19 13 -3 7 8 8 14 3 14 -5 0 -13 -5 -16 -11z"/>
<path d="M1603 997 c-33 -22 -42 -37 -22 -37 11 0 23 11 48 43 17 22 14 21
-26 -6z"/>
</g>
</svg>
