<svg width="7" height="12" viewBox="0 0 7 12" fill="none" xmlns="http://www.w3.org/2000/svg">
<path d="M4.98368 5.41074C5.1399 5.56701 5.22767 5.77893 5.22767 5.99991C5.22767 6.22088 5.1399 6.4328 4.98368 6.58907L1.16285 10.4107C1.01105 10.5679 0.927051 10.7784 0.92895 10.9969C0.930849 11.2154 1.01849 11.4244 1.173 11.5789C1.3275 11.7334 1.53651 11.8211 1.75501 11.823C1.97351 11.8249 2.18401 11.7409 2.34118 11.5891L6.15951 7.76741C6.62819 7.29859 6.89148 6.66282 6.89148 5.99991C6.89148 5.33699 6.62819 4.70122 6.15951 4.2324L2.33785 0.410738C2.18068 0.25894 1.97018 0.174944 1.75168 0.176843C1.53318 0.178741 1.32417 0.266383 1.16966 0.42089C1.01516 0.575397 0.927516 0.784407 0.925617 1.0029C0.923718 1.2214 1.00771 1.4319 1.15951 1.58907L4.98368 5.41074Z" fill="#838589"/>
</svg>
